<?xml version="1.0" encoding="UTF-8"?>
<svg width="1024" height="1024" viewBox="0 0 1024 1024" fill="none" xmlns="http://www.w3.org/2000/svg">
  <defs>
    <linearGradient id="bg" x1="140" y1="120" x2="900" y2="920" gradientUnits="userSpaceOnUse">
      <stop offset="0%" stop-color="#6E35FF"/>
      <stop offset="100%" stop-color="#1E0B73"/>
    </linearGradient>

    <linearGradient id="badge" x1="580" y1="250" x2="850" y2="520" gradientUnits="userSpaceOnUse">
      <stop offset="0%" stop-color="#FFE36A"/>
      <stop offset="50%" stop-color="#FF8AC7"/>
      <stop offset="100%" stop-color="#B16CFF"/>
    </linearGradient>

    <filter id="shadow" x="-20%" y="-20%" width="140%" height="140%">
      <feDropShadow dx="0" dy="18" stdDeviation="22" flood-opacity="0.25"/>
    </filter>
  </defs>

  <!-- Rounded App Background -->
  <rect x="40" y="40" width="944" height="944" rx="210" fill="url(#bg)"/>

  <!-- Receipt Shape -->
  <g filter="url(#shadow)">
    <path d="
      M280 300
      Q280 250 330 250
      H650
      Q700 250 700 300
      V720
      Q700 770 650 770
      H620
      Q610 770 610 780
      V810
      Q610 835 585 835
      H565
      Q540 835 540 810
      V780
      Q540 770 530 770
      H450
      Q440 770 440 780
      V810
      Q440 835 415 835
      H395
      Q370 835 370 810
      V780
      Q370 770 360 770
      H330
      Q280 770 280 720
      Z"
      fill="#F7F5FF"/>

    <!-- Receipt lines -->
    <rect x="360" y="420" width="170" height="28" rx="14" fill="#A685FF"/>
    <rect x="360" y="500" width="120" height="28" rx="14" fill="#A685FF"/>
    <circle cx="410" cy="610" r="38" fill="#A685FF"/>
  </g>

  <!-- Subscription Refresh Badge -->
  <g filter="url(#shadow)">
    <circle cx="705" cy="365" r="150" fill="url(#badge)"/>

    <!-- Refresh arrows -->
    <path d="
      M650 330
      C670 285 725 270 770 300
      "
      stroke="white" stroke-width="24" stroke-linecap="round"/>

    <path d="
      M760 290
      L795 300
      L780 335
      "
      stroke="white" stroke-width="24" stroke-linecap="round" stroke-linejoin="round"/>

    <path d="
      M760 405
      C735 450 675 460 635 425
      "
      stroke="white" stroke-width="24" stroke-linecap="round"/>

    <path d="
      M645 435
      L610 425
      L625 390
      "
      stroke="white" stroke-width="24" stroke-linecap="round" stroke-linejoin="round"/>
  </g>
</svg>
